{
 "cells": [
  {
   "cell_type": "code",
   "execution_count": 1,
   "id": "eb89642e",
   "metadata": {},
   "outputs": [],
   "source": [
    "import subprocess\n",
    "import shlex\n",
    "import json\n",
    "import time \n",
    "import os\n",
    "import sys\n",
    "\n",
    "class Bitrate :\n",
    "    def __init__(self, input_data, output, timeout=10):\n",
    "        self.input_data = input_data\n",
    "        self.output = output\n",
    "        self.timeout = timeout\n",
    "    \n",
    "    def get_stream(self):\n",
    "        timeout = time.time() + self.timeout\n",
    "        cmd = \"ffmpeg -i \"+self.input_data+\" -hide_banner -y -c copy \"+self.output\n",
    "        process = subprocess.Popen(cmd, stdin=subprocess.PIPE, stdout=subprocess.PIPE, stderr=subprocess.STDOUT, universal_newlines=True, shell=True)\n",
    "        for line in process.stdout:\n",
    "            print(line)\n",
    "            if time.time() > timeout:\n",
    "                break\n",
    "        process.communicate(input='q')\n",
    "        \n",
    "    def manual_calculation(self):\n",
    "        data = subprocess.run(shlex.split(f'ffprobe -select_streams v:0 -show_entries packet=size,duration -of compact=p=0:nk=1 -print_format json '+self.output), stdout=subprocess.PIPE).stdout\n",
    "        dict = json.loads(data)\n",
    "        sum_packets_size = 0\n",
    "        sum_packets_duration = 0\n",
    "        for p in dict['packets']:\n",
    "            sum_packets_size += float(p['size'])\n",
    "            sum_packets_duration += float(p['duration'])\n",
    "        bit_rate = round((sum_packets_size / sum_packets_duration) * 8 * 1000)\n",
    "        print(f'bit_rate = {bit_rate}')        "
   ]
  },
  {
   "cell_type": "code",
   "execution_count": 2,
   "id": "1c266c12",
   "metadata": {},
   "outputs": [],
   "source": [
    "# Streaming rtsp\n",
    "br = Bitrate(\n",
    "    input_data=\"rtsp://wowzaec2demo.streamlock.net/vod/mp4:BigBuckBunny_115k.mov\",\n",
    "    output=\"output.mp4\",\n",
    "    timeout=30\n",
    ")"
   ]
  },
  {
   "cell_type": "code",
   "execution_count": 3,
   "id": "d2653b84",
   "metadata": {},
   "outputs": [
    {
     "name": "stdout",
     "output_type": "stream",
     "text": [
      "[rtsp @ 000001a50e40ecc0] max delay reached. need to consume packet\n",
      "\n",
      "[rtsp @ 000001a50e40ecc0] RTP: missed 1 packets\n",
      "\n",
      "[rtsp @ 000001a50e40ecc0] max delay reached. need to consume packet\n",
      "\n",
      "[rtsp @ 000001a50e40ecc0] RTP: missed 3 packets\n",
      "\n",
      "Input #0, rtsp, from 'rtsp://wowzaec2demo.streamlock.net/vod/mp4:BigBuckBunny_115k.mov':\n",
      "\n",
      "  Metadata:\n",
      "\n",
      "    title           : BigBuckBunny_115k.mov\n",
      "\n",
      "  Duration: 00:10:34.63, start: 0.000000, bitrate: N/A\n",
      "\n",
      "  Stream #0:0: Audio: aac (LC), 12000 Hz, stereo, fltp\n",
      "\n",
      "  Stream #0:1: Video: h264 (High), yuv420p(progressive), 240x160 [SAR 32:27 DAR 16:9], 24 fps, 24 tbr, 90k tbn\n",
      "\n",
      "Output #0, mp4, to 'output.mp4':\n",
      "\n",
      "  Metadata:\n",
      "\n",
      "    title           : BigBuckBunny_115k.mov\n",
      "\n",
      "    encoder         : Lavf59.5.100\n",
      "\n",
      "  Stream #0:0: Video: h264 (High) (avc1 / 0x31637661), yuv420p(progressive), 240x160 [SAR 32:27 DAR 16:9], q=2-31, 24 fps, 24 tbr, 90k tbn\n",
      "\n",
      "  Stream #0:1: Audio: aac (LC) (mp4a / 0x6134706D), 12000 Hz, stereo, fltp\n",
      "\n",
      "Stream mapping:\n",
      "\n",
      "  Stream #0:1 -> #0:0 (copy)\n",
      "\n",
      "  Stream #0:0 -> #0:1 (copy)\n",
      "\n",
      "Press [q] to stop, [?] for help\n",
      "\n",
      "frame=    0 fps=0.0 q=-1.0 size=       0kB time=00:00:00.08 bitrate=   4.5kbits/s speed=2.84e+04x    \n",
      "\n",
      "[mp4 @ 000001a50e85e980] Timestamps are unset in a packet for stream 0. This is deprecated and will stop working in the future. Fix your code to set the timestamps properly\n",
      "\n",
      "[mp4 @ 000001a50e85e980] pts has no value\n",
      "\n",
      "[mp4 @ 000001a50e85e980] Invalid DTS: 7530 PTS: 3780 in output stream 0:0, replacing by guess\n",
      "\n",
      "[mp4 @ 000001a50e85e980] Non-monotonous DTS in output stream 0:0; previous: 3781, current: 3780; changing to 3782. This may result in incorrect timestamps in the output file.\n",
      "\n",
      "frame=   41 fps=0.0 q=-1.0 size=       0kB time=00:00:01.79 bitrate=   0.2kbits/s speed=3.06x    \n",
      "\n",
      "[rtsp @ 000001a50e40ecc0] max delay reached. need to consume packet\n",
      "\n",
      "[rtsp @ 000001a50e40ecc0] RTP: missed 3 packets\n",
      "\n",
      "frame=   52 fps= 47 q=-1.0 size=       0kB time=00:00:02.38 bitrate=   0.2kbits/s speed=2.17x    \n",
      "\n",
      "frame=   65 fps= 40 q=-1.0 size=       0kB time=00:00:02.90 bitrate=   0.1kbits/s speed= 1.8x    \n",
      "\n",
      "[rtsp @ 000001a50e40ecc0] max delay reached. need to consume packet\n",
      "\n",
      "[rtsp @ 000001a50e40ecc0] RTP: missed 3 packets\n",
      "\n",
      "[rtsp @ 000001a50e40ecc0] max delay reached. need to consume packet\n",
      "\n",
      "[rtsp @ 000001a50e40ecc0] RTP: missed 1 packets\n",
      "\n",
      "frame=   77 fps= 35 q=-1.0 size=       0kB time=00:00:03.49 bitrate=   0.1kbits/s speed=1.59x    \n",
      "\n",
      "frame=   89 fps= 33 q=-1.0 size=       0kB time=00:00:04.01 bitrate=   0.1kbits/s speed=1.48x    \n",
      "\n",
      "[rtsp @ 000001a50e40ecc0] max delay reached. need to consume packet\n",
      "\n",
      "[rtsp @ 000001a50e40ecc0] RTP: missed 3 packets\n",
      "\n",
      "frame=  101 fps= 32 q=-1.0 size=       0kB time=00:00:04.43 bitrate=   0.1kbits/s speed=1.38x    \n",
      "\n",
      "frame=  113 fps= 30 q=-1.0 size=       0kB time=00:00:04.87 bitrate=   0.1kbits/s speed=1.31x    \n",
      "\n",
      "[rtsp @ 000001a50e40ecc0] max delay reached. need to consume packet\n",
      "\n",
      "[rtsp @ 000001a50e40ecc0] RTP: missed 3 packets\n",
      "\n",
      "[rtsp @ 000001a50e40ecc0] max delay reached. need to consume packet\n",
      "\n",
      "[rtsp @ 000001a50e40ecc0] RTP: missed 1 packets\n",
      "\n",
      "frame=  125 fps= 30 q=-1.0 size=       0kB time=00:00:05.54 bitrate=   0.1kbits/s speed=1.31x    \n",
      "\n",
      "frame=  137 fps= 29 q=-1.0 size=       0kB time=00:00:06.05 bitrate=   0.1kbits/s speed=1.28x    \n",
      "\n",
      "[rtsp @ 000001a50e40ecc0] max delay reached. need to consume packet\n",
      "\n",
      "[rtsp @ 000001a50e40ecc0] RTP: missed 3 packets\n",
      "\n",
      "[rtsp @ 000001a50e40ecc0] max delay reached. need to consume packet\n",
      "\n",
      "[rtsp @ 000001a50e40ecc0] RTP: missed 1 packets\n",
      "\n",
      "frame=  149 fps= 28 q=-1.0 size=       0kB time=00:00:06.48 bitrate=   0.1kbits/s speed=1.24x    \n",
      "\n",
      "frame=  161 fps= 28 q=-1.0 size=       0kB time=00:00:06.99 bitrate=   0.1kbits/s speed=1.22x    \n",
      "\n",
      "[rtsp @ 000001a50e40ecc0] max delay reached. need to consume packet\n",
      "\n",
      "[rtsp @ 000001a50e40ecc0] RTP: missed 4 packets\n",
      "\n",
      "frame=  171 fps= 27 q=-1.0 size=       0kB time=00:00:07.42 bitrate=   0.1kbits/s speed=1.19x    \n",
      "\n",
      "frame=  183 fps= 27 q=-1.0 size=       0kB time=00:00:07.93 bitrate=   0.0kbits/s speed=1.18x    \n",
      "\n",
      "[rtsp @ 000001a50e40ecc0] max delay reached. need to consume packet\n",
      "\n",
      "[rtsp @ 000001a50e40ecc0] RTP: missed 5 packets\n",
      "\n",
      "frame=  192 fps= 26 q=-1.0 size=       0kB time=00:00:08.53 bitrate=   0.0kbits/s speed=1.17x    \n",
      "\n",
      "[rtsp @ 000001a50e40ecc0] max delay reached. need to consume packet\n",
      "\n",
      "[rtsp @ 000001a50e40ecc0] RTP: missed 1 packets\n",
      "\n",
      "frame=  203 fps= 26 q=-1.0 size=       0kB time=00:00:09.04 bitrate=   0.0kbits/s speed=1.16x    \n",
      "\n",
      "[rtsp @ 000001a50e40ecc0] max delay reached. need to consume packet\n",
      "\n",
      "[rtsp @ 000001a50e40ecc0] RTP: missed 4 packets\n",
      "\n",
      "[rtsp @ 000001a50e40ecc0] max delay reached. need to consume packet\n",
      "\n",
      "[rtsp @ 000001a50e40ecc0] RTP: missed 1 packets\n",
      "\n",
      "frame=  215 fps= 26 q=-1.0 size=       0kB time=00:00:09.55 bitrate=   0.0kbits/s speed=1.15x    \n",
      "\n",
      "frame=  228 fps= 26 q=-1.0 size=       0kB time=00:00:09.98 bitrate=   0.0kbits/s speed=1.14x    \n",
      "\n",
      "[rtsp @ 000001a50e40ecc0] max delay reached. need to consume packet\n",
      "\n",
      "[rtsp @ 000001a50e40ecc0] RTP: missed 4 packets\n",
      "\n",
      "[rtsp @ 000001a50e40ecc0] max delay reached. need to consume packet\n",
      "\n",
      "[rtsp @ 000001a50e40ecc0] RTP: missed 1 packets\n",
      "\n",
      "frame=  238 fps= 26 q=-1.0 size=       0kB time=00:00:10.58 bitrate=   0.0kbits/s speed=1.14x    \n",
      "\n",
      "frame=  251 fps= 26 q=-1.0 size=       0kB time=00:00:11.00 bitrate=   0.0kbits/s speed=1.12x    \n",
      "\n",
      "[rtsp @ 000001a50e40ecc0] max delay reached. need to consume packet\n",
      "\n",
      "[rtsp @ 000001a50e40ecc0] RTP: missed 5 packets\n",
      "\n",
      "frame=  263 fps= 26 q=-1.0 size=       0kB time=00:00:11.52 bitrate=   0.0kbits/s speed=1.12x    \n",
      "\n",
      "frame=  273 fps= 25 q=-1.0 size=       0kB time=00:00:12.11 bitrate=   0.0kbits/s speed=1.12x    \n",
      "\n",
      "[rtsp @ 000001a50e40ecc0] max delay reached. need to consume packet\n",
      "\n",
      "[rtsp @ 000001a50e40ecc0] RTP: missed 1 packets\n",
      "\n",
      "[rtsp @ 000001a50e40ecc0] max delay reached. need to consume packet\n",
      "\n",
      "[rtsp @ 000001a50e40ecc0] RTP: missed 8 packets\n",
      "\n",
      "frame=  286 fps= 25 q=-1.0 size=       0kB time=00:00:12.71 bitrate=   0.0kbits/s speed=1.11x    \n",
      "\n",
      "frame=  296 fps= 25 q=-1.0 size=       0kB time=00:00:13.22 bitrate=   0.0kbits/s speed=1.11x    \n",
      "\n",
      "[rtsp @ 000001a50e40ecc0] max delay reached. need to consume packet\n",
      "\n",
      "[rtsp @ 000001a50e40ecc0] RTP: missed 5 packets\n",
      "\n",
      "[rtsp @ 000001a50e40ecc0] max delay reached. need to consume packet\n",
      "\n",
      "[rtsp @ 000001a50e40ecc0] RTP: missed 1 packets\n",
      "\n",
      "frame=  308 fps= 25 q=-1.0 size=       0kB time=00:00:13.73 bitrate=   0.0kbits/s speed=1.11x    \n",
      "\n",
      "[rtsp @ 000001a50e40ecc0] max delay reached. need to consume packet\n",
      "\n",
      "[rtsp @ 000001a50e40ecc0] RTP: missed 1 packets\n",
      "\n",
      "frame=  318 fps= 25 q=-1.0 size=       0kB time=00:00:14.25 bitrate=   0.0kbits/s speed= 1.1x    \n",
      "\n",
      "[rtsp @ 000001a50e40ecc0] max delay reached. need to consume packet\n",
      "\n",
      "[rtsp @ 000001a50e40ecc0] RTP: missed 2 packets\n",
      "\n",
      "[rtsp @ 000001a50e40ecc0] max delay reached. need to consume packet\n",
      "\n",
      "[rtsp @ 000001a50e40ecc0] RTP: missed 5 packets\n",
      "\n",
      "frame=  333 fps= 25 q=-1.0 size=       0kB time=00:00:14.67 bitrate=   0.0kbits/s speed=1.09x    \n",
      "\n",
      "[rtsp @ 000001a50e40ecc0] max delay reached. need to consume packet\n",
      "\n",
      "[rtsp @ 000001a50e40ecc0] RTP: missed 1 packets\n",
      "\n",
      "[rtsp @ 000001a50e40ecc0] max delay reached. need to consume packet\n",
      "\n",
      "[rtsp @ 000001a50e40ecc0] RTP: missed 4 packets\n",
      "\n",
      "frame=  341 fps= 24 q=-1.0 size=       0kB time=00:00:15.27 bitrate=   0.0kbits/s speed=1.09x    \n",
      "\n",
      "frame=  357 fps= 25 q=-1.0 size=       0kB time=00:00:15.70 bitrate=   0.0kbits/s speed=1.08x    \n",
      "\n",
      "[rtsp @ 000001a50e40ecc0] max delay reached. need to consume packet\n",
      "\n",
      "[rtsp @ 000001a50e40ecc0] RTP: missed 4 packets\n",
      "\n",
      "frame=  366 fps= 24 q=-1.0 size=       0kB time=00:00:16.21 bitrate=   0.0kbits/s speed=1.08x    \n",
      "\n",
      "[rtsp @ 000001a50e40ecc0] max delay reached. need to consume packet\n",
      "\n",
      "[rtsp @ 000001a50e40ecc0] RTP: missed 1 packets\n",
      "\n",
      "[rtsp @ 000001a50e40ecc0] max delay reached. need to consume packet\n",
      "\n",
      "[rtsp @ 000001a50e40ecc0] RTP: missed 6 packets\n",
      "\n",
      "frame=  380 fps= 25 q=-1.0 size=       0kB time=00:00:16.72 bitrate=   0.0kbits/s speed=1.08x    \n",
      "\n",
      "[rtsp @ 000001a50e40ecc0] max delay reached. need to consume packet\n",
      "\n",
      "[rtsp @ 000001a50e40ecc0] RTP: missed 6 packets\n",
      "\n",
      "frame=  389 fps= 24 q=-1.0 size=       0kB time=00:00:17.23 bitrate=   0.0kbits/s speed=1.08x    \n",
      "\n",
      "[rtsp @ 000001a50e40ecc0] max delay reached. need to consume packet\n",
      "\n",
      "[rtsp @ 000001a50e40ecc0] RTP: missed 3 packets\n",
      "\n"
     ]
    },
    {
     "name": "stdout",
     "output_type": "stream",
     "text": [
      "frame=  399 fps= 24 q=-1.0 size=       0kB time=00:00:17.66 bitrate=   0.0kbits/s speed=1.07x    \n",
      "\n",
      "[rtsp @ 000001a50e40ecc0] max delay reached. need to consume packet\n",
      "\n",
      "[rtsp @ 000001a50e40ecc0] RTP: missed 2 packets\n",
      "\n",
      "[rtsp @ 000001a50e40ecc0] max delay reached. need to consume packet\n",
      "\n",
      "[rtsp @ 000001a50e40ecc0] RTP: missed 5 packets\n",
      "\n",
      "frame=  413 fps= 24 q=-1.0 size=       0kB time=00:00:18.34 bitrate=   0.0kbits/s speed=1.08x    \n",
      "\n",
      "frame=  427 fps= 24 q=-1.0 size=       0kB time=00:00:18.79 bitrate=   0.0kbits/s speed=1.07x    \n",
      "\n",
      "[rtsp @ 000001a50e40ecc0] max delay reached. need to consume packet\n",
      "\n",
      "[rtsp @ 000001a50e40ecc0] RTP: missed 2 packets\n",
      "\n",
      "[rtsp @ 000001a50e40ecc0] max delay reached. need to consume packet\n",
      "\n",
      "[rtsp @ 000001a50e40ecc0] RTP: missed 2 packets\n",
      "\n",
      "[rtsp @ 000001a50e40ecc0] max delay reached. need to consume packet\n",
      "\n",
      "[rtsp @ 000001a50e40ecc0] RTP: missed 1 packets\n",
      "\n",
      "frame=  438 fps= 24 q=-1.0 size=       0kB time=00:00:19.29 bitrate=   0.0kbits/s speed=1.06x    \n",
      "\n",
      "frame=  450 fps= 24 q=-1.0 size=       0kB time=00:00:19.79 bitrate=   0.0kbits/s speed=1.06x    \n",
      "\n",
      "[rtsp @ 000001a50e40ecc0] max delay reached. need to consume packet\n",
      "\n",
      "[rtsp @ 000001a50e40ecc0] RTP: missed 4 packets\n",
      "\n",
      "[rtsp @ 000001a50e40ecc0] max delay reached. need to consume packet\n",
      "\n",
      "[rtsp @ 000001a50e40ecc0] RTP: missed 1 packets\n",
      "\n",
      "frame=  458 fps= 24 q=-1.0 size=       0kB time=00:00:20.30 bitrate=   0.0kbits/s speed=1.06x    \n",
      "\n",
      "frame=  473 fps= 24 q=-1.0 size=       0kB time=00:00:20.79 bitrate=   0.0kbits/s speed=1.06x    \n",
      "\n",
      "[rtsp @ 000001a50e40ecc0] max delay reached. need to consume packet\n",
      "\n",
      "[rtsp @ 000001a50e40ecc0] RTP: missed 1 packets\n",
      "\n",
      "[rtsp @ 000001a50e40ecc0] max delay reached. need to consume packet\n",
      "\n",
      "[rtsp @ 000001a50e40ecc0] RTP: missed 2 packets\n",
      "\n",
      "frame=  486 fps= 24 q=-1.0 size=       0kB time=00:00:21.33 bitrate=   0.0kbits/s speed=1.06x    \n",
      "\n",
      "frame=  499 fps= 24 q=-1.0 size=       0kB time=00:00:22.01 bitrate=   0.0kbits/s speed=1.06x    \n",
      "\n",
      "[rtsp @ 000001a50e40ecc0] max delay reached. need to consume packet\n",
      "\n",
      "[rtsp @ 000001a50e40ecc0] RTP: missed 2 packets\n",
      "\n",
      "[rtsp @ 000001a50e40ecc0] max delay reached. need to consume packet\n",
      "\n",
      "[rtsp @ 000001a50e40ecc0] RTP: missed 1 packets\n",
      "\n",
      "frame=  510 fps= 24 q=-1.0 size=       0kB time=00:00:22.52 bitrate=   0.0kbits/s speed=1.06x    \n",
      "\n",
      "frame=  523 fps= 24 q=-1.0 size=       0kB time=00:00:22.95 bitrate=   0.0kbits/s speed=1.06x    \n",
      "\n",
      "[rtsp @ 000001a50e40ecc0] max delay reached. need to consume packet\n",
      "\n",
      "[rtsp @ 000001a50e40ecc0] RTP: missed 3 packets\n",
      "\n",
      "frame=  534 fps= 24 q=-1.0 size=       0kB time=00:00:23.55 bitrate=   0.0kbits/s speed=1.06x    \n",
      "\n",
      "frame=  546 fps= 24 q=-1.0 size=       0kB time=00:00:24.06 bitrate=   0.0kbits/s speed=1.06x    \n",
      "\n",
      "[rtsp @ 000001a50e40ecc0] max delay reached. need to consume packet\n",
      "\n",
      "[rtsp @ 000001a50e40ecc0] RTP: missed 3 packets\n",
      "\n",
      "frame=  556 fps= 24 q=-1.0 size=       0kB time=00:00:24.49 bitrate=   0.0kbits/s speed=1.05x    \n",
      "\n",
      "frame=  568 fps= 24 q=-1.0 size=       0kB time=00:00:24.91 bitrate=   0.0kbits/s speed=1.05x    \n",
      "\n",
      "[rtsp @ 000001a50e40ecc0] max delay reached. need to consume packet\n",
      "\n",
      "[rtsp @ 000001a50e40ecc0] RTP: missed 2 packets\n",
      "\n",
      "frame=  580 fps= 24 q=-1.0 size=     256kB time=00:00:25.42 bitrate=  82.5kbits/s speed=1.05x    \n",
      "\n",
      "frame=  592 fps= 24 q=-1.0 size=     256kB time=00:00:25.94 bitrate=  80.9kbits/s speed=1.05x    \n",
      "\n",
      "[rtsp @ 000001a50e40ecc0] max delay reached. need to consume packet\n",
      "\n",
      "[rtsp @ 000001a50e40ecc0] RTP: missed 2 packets\n",
      "\n",
      "frame=  605 fps= 24 q=-1.0 size=     256kB time=00:00:26.45 bitrate=  79.3kbits/s speed=1.05x    \n",
      "\n",
      "frame=  617 fps= 24 q=-1.0 size=     256kB time=00:00:26.96 bitrate=  77.8kbits/s speed=1.05x    \n",
      "\n",
      "[rtsp @ 000001a50e40ecc0] max delay reached. need to consume packet\n",
      "\n",
      "[rtsp @ 000001a50e40ecc0] RTP: missed 2 packets\n",
      "\n",
      "[rtsp @ 000001a50e40ecc0] max delay reached. need to consume packet\n",
      "\n"
     ]
    }
   ],
   "source": [
    "br.get_stream()"
   ]
  },
  {
   "cell_type": "code",
   "execution_count": 4,
   "id": "6bb01f53",
   "metadata": {},
   "outputs": [
    {
     "name": "stdout",
     "output_type": "stream",
     "text": [
      "bit_rate = 580\n"
     ]
    }
   ],
   "source": [
    "br.manual_calculation()"
   ]
  },
  {
   "cell_type": "code",
   "execution_count": 5,
   "id": "3e9be799",
   "metadata": {},
   "outputs": [],
   "source": [
    "# Streaming http\n",
    "br = Bitrate(\n",
    "    input_data=\"http://commondatastorage.googleapis.com/gtv-videos-bucket/sample/BigBuckBunny.mp4\",\n",
    "    output=\"output1.mp4\",\n",
    "    timeout=30\n",
    ")"
   ]
  },
  {
   "cell_type": "code",
   "execution_count": 6,
   "id": "34fd2fef",
   "metadata": {},
   "outputs": [
    {
     "name": "stdout",
     "output_type": "stream",
     "text": [
      "Input #0, mov,mp4,m4a,3gp,3g2,mj2, from 'http://commondatastorage.googleapis.com/gtv-videos-bucket/sample/BigBuckBunny.mp4':\n",
      "\n",
      "  Metadata:\n",
      "\n",
      "    major_brand     : mp42\n",
      "\n",
      "    minor_version   : 0\n",
      "\n",
      "    compatible_brands: isomavc1mp42\n",
      "\n",
      "    creation_time   : 2010-01-10T08:29:06.000000Z\n",
      "\n",
      "  Duration: 00:09:56.47, start: 0.000000, bitrate: 2119 kb/s\n",
      "\n",
      "  Stream #0:0[0x1](und): Audio: aac (LC) (mp4a / 0x6134706D), 44100 Hz, stereo, fltp, 125 kb/s (default)\n",
      "\n",
      "    Metadata:\n",
      "\n",
      "      creation_time   : 2010-01-10T08:29:06.000000Z\n",
      "\n",
      "      handler_name    : (C) 2007 Google Inc. v08.13.2007.\n",
      "\n",
      "      vendor_id       : [0][0][0][0]\n",
      "\n",
      "  Stream #0:1[0x2](und): Video: h264 (High) (avc1 / 0x31637661), yuv420p, 1280x720 [SAR 1:1 DAR 16:9], 1991 kb/s, 24 fps, 24 tbr, 24k tbn (default)\n",
      "\n",
      "    Metadata:\n",
      "\n",
      "      creation_time   : 2010-01-10T08:29:06.000000Z\n",
      "\n",
      "      handler_name    : (C) 2007 Google Inc. v08.13.2007.\n",
      "\n",
      "      vendor_id       : [0][0][0][0]\n",
      "\n",
      "Output #0, mp4, to 'output1.mp4':\n",
      "\n",
      "  Metadata:\n",
      "\n",
      "    major_brand     : mp42\n",
      "\n",
      "    minor_version   : 0\n",
      "\n",
      "    compatible_brands: isomavc1mp42\n",
      "\n",
      "    encoder         : Lavf59.5.100\n",
      "\n",
      "  Stream #0:0(und): Video: h264 (High) (avc1 / 0x31637661), yuv420p, 1280x720 [SAR 1:1 DAR 16:9], q=2-31, 1991 kb/s, 24 fps, 24 tbr, 24k tbn (default)\n",
      "\n",
      "    Metadata:\n",
      "\n",
      "      creation_time   : 2010-01-10T08:29:06.000000Z\n",
      "\n",
      "      handler_name    : (C) 2007 Google Inc. v08.13.2007.\n",
      "\n",
      "      vendor_id       : [0][0][0][0]\n",
      "\n",
      "  Stream #0:1(und): Audio: aac (LC) (mp4a / 0x6134706D), 44100 Hz, stereo, fltp, 125 kb/s (default)\n",
      "\n",
      "    Metadata:\n",
      "\n",
      "      creation_time   : 2010-01-10T08:29:06.000000Z\n",
      "\n",
      "      handler_name    : (C) 2007 Google Inc. v08.13.2007.\n",
      "\n",
      "      vendor_id       : [0][0][0][0]\n",
      "\n",
      "Stream mapping:\n",
      "\n",
      "  Stream #0:1 -> #0:0 (copy)\n",
      "\n",
      "  Stream #0:0 -> #0:1 (copy)\n",
      "\n",
      "Press [q] to stop, [?] for help\n",
      "\n",
      "frame=    0 fps=0.0 q=-1.0 size=       0kB time=00:00:00.02 bitrate=  16.5kbits/s speed=1.16e+04x    \n",
      "\n",
      "frame=   10 fps=0.0 q=-1.0 size=       0kB time=00:00:00.51 bitrate=   0.8kbits/s speed=0.838x    \n",
      "\n",
      "frame=   12 fps= 10 q=-1.0 size=       0kB time=00:00:00.69 bitrate=   0.6kbits/s speed=0.593x    \n",
      "\n",
      "frame=   16 fps=8.4 q=-1.0 size=       0kB time=00:00:01.02 bitrate=   0.4kbits/s speed=0.535x    \n",
      "\n",
      "frame=   18 fps=7.1 q=-1.0 size=       0kB time=00:00:01.02 bitrate=   0.4kbits/s speed=0.401x    \n",
      "\n",
      "frame=   20 fps=6.2 q=-1.0 size=       0kB time=00:00:01.02 bitrate=   0.4kbits/s speed=0.317x    \n",
      "\n",
      "frame=   22 fps=5.1 q=-1.0 size=       0kB time=00:00:01.02 bitrate=   0.4kbits/s speed=0.238x    \n",
      "\n",
      "frame=   23 fps=4.8 q=-1.0 size=       0kB time=00:00:01.02 bitrate=   0.4kbits/s speed=0.213x    \n",
      "\n",
      "frame=   24 fps=4.4 q=-1.0 size=       0kB time=00:00:01.02 bitrate=   0.4kbits/s speed=0.188x    \n",
      "\n",
      "frame=   24 fps=4.0 q=-1.0 size=       0kB time=00:00:01.04 bitrate=   0.4kbits/s speed=0.173x    \n",
      "\n",
      "frame=   26 fps=3.7 q=-1.0 size=       0kB time=00:00:01.53 bitrate=   0.3kbits/s speed=0.216x    \n",
      "\n",
      "frame=   27 fps=3.4 q=-1.0 size=       0kB time=00:00:01.53 bitrate=   0.3kbits/s speed=0.194x    \n",
      "\n",
      "frame=   28 fps=3.2 q=-1.0 size=       0kB time=00:00:01.53 bitrate=   0.3kbits/s speed=0.175x    \n",
      "\n",
      "frame=   29 fps=3.0 q=-1.0 size=     256kB time=00:00:01.53 bitrate=1368.7kbits/s speed=0.159x    \n",
      "\n",
      "frame=   30 fps=2.9 q=-1.0 size=     256kB time=00:00:01.53 bitrate=1368.7kbits/s speed=0.146x    \n",
      "\n",
      "frame=   31 fps=2.7 q=-1.0 size=     256kB time=00:00:01.53 bitrate=1368.7kbits/s speed=0.135x    \n",
      "\n",
      "frame=   32 fps=2.6 q=-1.0 size=     256kB time=00:00:01.53 bitrate=1368.7kbits/s speed=0.122x    \n",
      "\n",
      "frame=   33 fps=2.5 q=-1.0 size=     256kB time=00:00:01.53 bitrate=1368.7kbits/s speed=0.116x    \n",
      "\n",
      "frame=   34 fps=2.5 q=-1.0 size=     256kB time=00:00:01.53 bitrate=1368.7kbits/s speed=0.111x    \n",
      "\n",
      "frame=   35 fps=2.4 q=-1.0 size=     256kB time=00:00:01.53 bitrate=1368.7kbits/s speed=0.104x    \n",
      "\n",
      "frame=   36 fps=2.3 q=-1.0 size=     256kB time=00:00:01.53 bitrate=1368.7kbits/s speed=0.0992x    \n",
      "\n",
      "frame=   37 fps=2.3 q=-1.0 size=     256kB time=00:00:01.53 bitrate=1368.7kbits/s speed=0.0939x    \n",
      "\n",
      "frame=   37 fps=2.2 q=-1.0 size=     256kB time=00:00:01.55 bitrate=1348.3kbits/s speed=0.091x    \n",
      "\n",
      "frame=   39 fps=2.1 q=-1.0 size=     256kB time=00:00:02.04 bitrate=1026.5kbits/s speed=0.111x    \n",
      "\n",
      "frame=   40 fps=2.1 q=-1.0 size=     256kB time=00:00:02.04 bitrate=1026.5kbits/s speed=0.107x    \n",
      "\n",
      "frame=   41 fps=2.0 q=-1.0 size=     512kB time=00:00:02.04 bitrate=2052.8kbits/s speed=0.101x    \n",
      "\n"
     ]
    }
   ],
   "source": [
    "br.get_stream()"
   ]
  },
  {
   "cell_type": "code",
   "execution_count": 7,
   "id": "bf868b39",
   "metadata": {},
   "outputs": [
    {
     "name": "stdout",
     "output_type": "stream",
     "text": [
      "bit_rate = 102430\n"
     ]
    }
   ],
   "source": [
    "br.manual_calculation()"
   ]
  },
  {
   "cell_type": "code",
   "execution_count": 8,
   "id": "9c863cb3",
   "metadata": {},
   "outputs": [],
   "source": [
    "# Offline data\n",
    "br = Bitrate(\n",
    "    input_data=\"mini-data.mp4\",\n",
    "    output=\"output2.mp4\",\n",
    "    timeout=30\n",
    ")"
   ]
  },
  {
   "cell_type": "code",
   "execution_count": 9,
   "id": "6bb257e8",
   "metadata": {},
   "outputs": [
    {
     "name": "stdout",
     "output_type": "stream",
     "text": [
      "Input #0, mov,mp4,m4a,3gp,3g2,mj2, from 'mini-data.mp4':\n",
      "\n",
      "  Metadata:\n",
      "\n",
      "    major_brand     : isom\n",
      "\n",
      "    minor_version   : 512\n",
      "\n",
      "    compatible_brands: isomiso2avc1mp41\n",
      "\n",
      "    encoder         : Lavf55.48.100\n",
      "\n",
      "    copyright       : copyright\n",
      "\n",
      "    description     : description\n",
      "\n",
      "  Duration: 00:00:09.71, start: 0.000000, bitrate: 251 kb/s\n",
      "\n",
      "  Stream #0:0[0x1](und): Video: h264 (Constrained Baseline) (avc1 / 0x31637661), yuv420p(tv, bt709), 480x270, 180 kb/s, 30 fps, 30 tbr, 15360 tbn (default)\n",
      "\n",
      "    Metadata:\n",
      "\n",
      "      handler_name    : VideoHandler\n",
      "\n",
      "      vendor_id       : [0][0][0][0]\n",
      "\n",
      "  Stream #0:1[0x2](und): Audio: aac (LC) (mp4a / 0x6134706D), 44100 Hz, mono, fltp, 64 kb/s (default)\n",
      "\n",
      "    Metadata:\n",
      "\n",
      "      handler_name    : SoundHandler\n",
      "\n",
      "      vendor_id       : [0][0][0][0]\n",
      "\n",
      "Output #0, mp4, to 'output2.mp4':\n",
      "\n",
      "  Metadata:\n",
      "\n",
      "    major_brand     : isom\n",
      "\n",
      "    minor_version   : 512\n",
      "\n",
      "    compatible_brands: isomiso2avc1mp41\n",
      "\n",
      "    description     : description\n",
      "\n",
      "    copyright       : copyright\n",
      "\n",
      "    encoder         : Lavf59.5.100\n",
      "\n",
      "  Stream #0:0(und): Video: h264 (Constrained Baseline) (avc1 / 0x31637661), yuv420p(tv, bt709), 480x270, q=2-31, 180 kb/s, 30 fps, 30 tbr, 15360 tbn (default)\n",
      "\n",
      "    Metadata:\n",
      "\n",
      "      handler_name    : VideoHandler\n",
      "\n",
      "      vendor_id       : [0][0][0][0]\n",
      "\n",
      "  Stream #0:1(und): Audio: aac (LC) (mp4a / 0x6134706D), 44100 Hz, mono, fltp, 64 kb/s (default)\n",
      "\n",
      "    Metadata:\n",
      "\n",
      "      handler_name    : SoundHandler\n",
      "\n",
      "      vendor_id       : [0][0][0][0]\n",
      "\n",
      "Stream mapping:\n",
      "\n",
      "  Stream #0:0 -> #0:0 (copy)\n",
      "\n",
      "  Stream #0:1 -> #0:1 (copy)\n",
      "\n",
      "Press [q] to stop, [?] for help\n",
      "\n",
      "frame=    1 fps=0.0 q=-1.0 size=       0kB time=00:00:00.00 bitrate=N/A speed=   0x    \n",
      "\n",
      "frame=  290 fps=0.0 q=-1.0 Lsize=     288kB time=00:00:07.48 bitrate= 315.4kbits/s speed=3.94e+03x    \n",
      "\n",
      "video:213kB audio:66kB subtitle:0kB other streams:0kB global headers:0kB muxing overhead: 3.085665%\n",
      "\n"
     ]
    }
   ],
   "source": [
    "br.get_stream()"
   ]
  },
  {
   "cell_type": "code",
   "execution_count": 10,
   "id": "64ed0172",
   "metadata": {},
   "outputs": [
    {
     "name": "stdout",
     "output_type": "stream",
     "text": [
      "bit_rate = 11721\n"
     ]
    }
   ],
   "source": [
    "br.manual_calculation()"
   ]
  }
 ],
 "metadata": {
  "kernelspec": {
   "display_name": "Python 3 (ipykernel)",
   "language": "python",
   "name": "python3"
  },
  "language_info": {
   "codemirror_mode": {
    "name": "ipython",
    "version": 3
   },
   "file_extension": ".py",
   "mimetype": "text/x-python",
   "name": "python",
   "nbconvert_exporter": "python",
   "pygments_lexer": "ipython3",
   "version": "3.8.3"
  }
 },
 "nbformat": 4,
 "nbformat_minor": 5
}
